HIERARCHY
ROOT hip
{
  OFFSET 0 0 0
  CHANNELS 6 Xposition Yposition Zposition Zrotation Yrotation Xrotation
  JOINT abdomen
  {
    OFFSET 0 20.6881 -0.73152
    CHANNELS 3 Zrotation Xrotation Yrotation
    JOINT chest
    {
      OFFSET 0 11.7043 -0.48768
      CHANNELS 3 Zrotation Xrotation Yrotation
      JOINT neck
      {
        OFFSET 0 22.1894 -2.19456
        CHANNELS 3 Zrotation Xrotation Yrotation
        JOINT head
        {
          OFFSET -0.24384 7.07133 1.2192
          CHANNELS 3 Zrotation Xrotation Yrotation
          JOINT leftEye
          {
            OFFSET 4.14528 8.04674 8.04672
            CHANNELS 3 Zrotation Xrotation Yrotation
            End Site
            {
              OFFSET 1 0 0
            }
          }
          JOINT rightEye
          {
            OFFSET -3.6576 8.04674 8.04672
            CHANNELS 3 Zrotation Xrotation Yrotation
            End Site
            {
              OFFSET 1 0 0
            }
          }
        }
      }
      JOINT rCollar
      {
        OFFSET -2.68224 19.2634 -4.8768
        CHANNELS 3 Zrotation Xrotation Yrotation
        JOINT rShldr
        {
          OFFSET -8.77824 -1.95073 1.46304
          CHANNELS 3 Zrotation Xrotation Yrotation
          JOINT rForeArm
          {
            OFFSET -28.1742 -1.7115 0.48768
            CHANNELS 3 Zrotation Xrotation Yrotation
            JOINT rHand
            {
              OFFSET -22.5879 0.773209 7.07136
              CHANNELS 3 Zrotation Xrotation Yrotation
              JOINT rThumb1
              {
                OFFSET -1.2192 -0.487915 3.41376
                CHANNELS 3 Zrotation Xrotation Yrotation
                JOINT rThumb2
                {
                  OFFSET -3.37035 -0.52449 3.41376
                  CHANNELS 3 Zrotation Xrotation Yrotation
                  End Site
                  {
                    OFFSET -1.78271 -1.18214 1.43049
                  }
                }
              }
              JOINT rIndex1
              {
                OFFSET -7.75947 0.938293 5.60832
                CHANNELS 3 Zrotation Xrotation Yrotation
                JOINT rIndex2
                {
                  OFFSET -2.54057 -0.884171 1.56538
                  CHANNELS 3 Zrotation Xrotation Yrotation
                  End Site
                  {
                    OFFSET -1.62519 -0.234802 1.16502
                  }
                }
              }
              JOINT rMid1
              {
                OFFSET -8.24714 1.18213 3.41376
                CHANNELS 3 Zrotation Xrotation Yrotation
                JOINT rMid2
                {
                  OFFSET -3.10165 -0.590103 1.0647
                  CHANNELS 3 Zrotation Xrotation Yrotation
                  End Site
                  {
                    OFFSET -2.48547 -0.328903 0.83742
                  }
                }
              }
              JOINT rRing1
              {
                OFFSET -8.82822 0.546677 1.51678
                CHANNELS 3 Zrotation Xrotation Yrotation
                JOINT rRing2
                {
                  OFFSET -2.60934 -0.819778 -0.0198488
                  CHANNELS 3 Zrotation Xrotation Yrotation
                  End Site
                  {
                    OFFSET -2.33842 -0.294052 0.168128
                  }
                }
              }
              JOINT rPinky1
              {
                OFFSET -8.27202 -0.0477905 -0.4584
                CHANNELS 3 Zrotation Xrotation Yrotation
                JOINT rPinky2
                {
                  OFFSET -1.82734 -0.647385 -0.700984
                  CHANNELS 3 Zrotation Xrotation Yrotation
                  End Site
                  {
                    OFFSET -1.69225 -0.51767 -0.607171
                  }
                }
              }
            }
          }
        }
      }
      JOINT lCollar
      {
        OFFSET 2.68224 19.2634 -4.8768
        CHANNELS 3 Zrotation Xrotation Yrotation
        JOINT lShldr
        {
          OFFSET 8.77824 -1.95073 1.46304
          CHANNELS 3 Zrotation Xrotation Yrotation
          JOINT lForeArm
          {
            OFFSET 28.1742 -1.7115 0.48768
            CHANNELS 3 Zrotation Xrotation Yrotation
            JOINT lHand
            {
              OFFSET 22.5879 0.773209 7.07136
              CHANNELS 3 Zrotation Xrotation Yrotation
              JOINT lThumb1
              {
                OFFSET 1.2192 -0.487915 3.41376
                CHANNELS 3 Zrotation Xrotation Yrotation
                JOINT lThumb2
                {
                  OFFSET 3.37035 -0.52449 3.41376
                  CHANNELS 3 Zrotation Xrotation Yrotation
                  End Site
                  {
                    OFFSET 1.78271 -1.18214 1.43049
                  }
                }
              }
              JOINT lIndex1
              {
                OFFSET 7.75947 0.938293 5.60832
                CHANNELS 3 Zrotation Xrotation Yrotation
                JOINT lIndex2
                {
                  OFFSET 2.54057 -0.884171 1.56538
                  CHANNELS 3 Zrotation Xrotation Yrotation
                  End Site
                  {
                    OFFSET 1.62519 -0.234802 1.16502
                  }
                }
              }
              JOINT lMid1
              {
                OFFSET 8.24714 1.18213 3.41376
                CHANNELS 3 Zrotation Xrotation Yrotation
                JOINT lMid2
                {
                  OFFSET 3.10165 -0.590103 1.0647
                  CHANNELS 3 Zrotation Xrotation Yrotation
                  End Site
                  {
                    OFFSET 2.48547 -0.328903 0.83742
                  }
                }
              }
              JOINT lRing1
              {
                OFFSET 8.82822 0.546677 1.51678
                CHANNELS 3 Zrotation Xrotation Yrotation
                JOINT lRing2
                {
                  OFFSET 2.60934 -0.819778 -0.0198488
                  CHANNELS 3 Zrotation Xrotation Yrotation
                  End Site
                  {
                    OFFSET 2.33842 -0.294052 0.168128
                  }
                }
              }
              JOINT lPinky1
              {
                OFFSET 8.27202 -0.0477905 -0.4584
                CHANNELS 3 Zrotation Xrotation Yrotation
                JOINT lPinky2
                {
                  OFFSET 1.82734 -0.647385 -0.700984
                  CHANNELS 3 Zrotation Xrotation Yrotation
                  End Site
                  {
                    OFFSET 1.69225 -0.51767 -0.607171
                  }
                }
              }
            }
          }
        }
      }
    }
  }
  JOINT rButtock
  {
    OFFSET -8.77824 4.35084 1.2192
    CHANNELS 3 Zrotation Xrotation Yrotation
    JOINT rThigh
    {
      OFFSET 0 -1.70687 -2.19456
      CHANNELS 3 Zrotation Xrotation Yrotation
      JOINT rShin
      {
        OFFSET 0 -36.8199 0.73152
        CHANNELS 3 Zrotation Xrotation Yrotation
        JOINT rFoot
        {
          OFFSET 0.73152 -45.1104 -5.12064
          CHANNELS 3 Zrotation Xrotation Yrotation
          End Site
          {
            OFFSET -1.1221 -3.69964 12.103
          }
        }
      }
    }
  }
  JOINT lButtock
  {
    OFFSET 8.77824 4.35084 1.2192
    CHANNELS 3 Zrotation Xrotation Yrotation
    JOINT lThigh
    {
      OFFSET 0 -1.70687 -2.19456
      CHANNELS 3 Zrotation Xrotation Yrotation
      JOINT lShin
      {
        OFFSET 0 -36.8199 0.73152
        CHANNELS 3 Zrotation Xrotation Yrotation
        JOINT lFoot
        {
          OFFSET -0.73152 -45.1104 -5.12064
          CHANNELS 3 Zrotation Xrotation Yrotation
          End Site
          {
            OFFSET 1.1221 -3.69964 12.103
          }
        }
      }
    }
  }
}
MOTION
Frames:	5
Frame Time:	0.00833333
4.0107 84.3996 -77.3735 0.0 0.0 0.0 -0.991227 -0.00434164 -0.0274292 -0.27343 -0.00447542 -0.0473709 3.42897e-15 -7.95139e-16 2.48481e-16 1.06878e-14 3.18055e-15 7.31465e-16 -0.0 0.0 0.0 -0.0 0.0 0.0 1.73808e-15 -3.68839e-18 1.98785e-16 3.89514e-14 -3.78933e-16 3.77691e-15 6.34222e-13 -1.9302e-13 6.04305e-14 7.28093e-12 1.87379e-13 4.77083e-13 1.71704e-11 -7.84612e-15 1.16408e-12 2.96471e-11 -1.27222e-14 2.00852e-12 1.7177e-11 -5.1684e-15 1.1609e-12 7.73091 5.47488 0.417314 1.71705e-11 -7.55382e-15 1.16726e-12 2.90554 0.965183 0.102902 1.71873e-11 -7.25564e-15 1.16329e-12 10.2786 0.731801 0.0259123 1.7166e-11 -6.36111e-15 1.16408e-12 2.22167 -0.733487 -0.20892 1.74078e-15 -4.85314e-18 0.0 3.34334e-14 -6.83322e-17 1.59028e-15 6.35713e-13 1.91628e-13 1.90833e-14 7.26462e-12 -1.91454e-13 5.1525e-13 1.71426e-11 1.01707e-15 1.16408e-12 2.96078e-11 0.0 2.0125e-12 1.7136e-11 3.18055e-15 1.16408e-12 -7.73091 5.47488 -0.417314 1.71419e-11 1.39149e-15 1.15772e-12 -2.90554 0.965183 -0.102902 1.71306e-11 1.2921e-15 1.16249e-12 -10.2786 0.731801 -0.0259123 1.71444e-11 3.97569e-16 1.15454e-12 -2.22167 -0.733487 0.20892 -2.03217e-16 0.0 -3.88251e-19 -0.25375 -1.9193 -0.0128555 -0.0092895 -2.07855 -0.076736 -0.497405 3.99655 0.138115 2.03217e-16 0.0 3.88251e-19 -1.25485 -5.46677 0.109735 -9.52424e-05 4.34723 -0.0243755 0.511573 1.11837 -0.0811159
3.47197 82.6938 -78.9606 -1.238 -2.9204 7.0722 -0.842507 1.88485 -0.320447 0.19511 0.992647 -0.137818 -0.337662 0.989751 0.272874 -0.110424 2.84194 0.597202 -0.0 0.0 0.0 -0.0 0.0 0.0 -6.76288e-15 -1.82664e-14 1.65395e-16 21.7417 3.46096 1.54016 -3.67757 -1.57596 5.84296 0.131163 8.04884 1.0913 -6.77178e-11 -5.44803e-11 1.9318e-10 -1.12834e-10 -9.63703e-11 3.35298e-10 -6.77118e-11 -5.44776e-11 1.93179e-10 7.73091 5.47488 0.417314 -6.77179e-11 -5.44809e-11 1.93182e-10 2.90554 0.965183 0.102902 -6.7703e-11 -5.44808e-11 1.93178e-10 10.2786 0.731801 0.0259123 -6.7722e-11 -5.44799e-11 1.9318e-10 2.22167 -0.733487 -0.20892 -6.79298e-15 -1.82666e-14 -3.22251e-17 -21.1349 6.67531 -3.24996 2.52985 -0.941427 -4.14859 -0.00479621 -1.53635 0.215639 1.79203e-10 -9.98192e-11 -2.1575e-10 3.10208e-10 -1.72587e-10 -3.72297e-10 1.79198e-10 -9.98154e-11 -2.15749e-10 -7.73091 5.47488 -0.417314 1.79204e-10 -9.98168e-11 -2.15756e-10 -2.90554 0.965183 -0.102902 1.79192e-10 -9.98169e-11 -2.15752e-10 -10.2786 0.731801 -0.0259123 1.79204e-10 -9.98179e-11 -2.15758e-10 -2.22167 -0.733487 0.20892 -2.03217e-16 0.0 -3.88251e-19 -0.81939 -7.8991 -1.00609 -0.00684713 5.85941 0.0388964 -0.477777 0.393107 0.113174 2.03217e-16 0.0 3.88251e-19 -0.38269 -10.5219 2.69869 -0.0106424 10.7771 -0.132058 0.555256 -1.90986 0.570488
3.40828 82.6923 -78.9648 -1.2739 -2.8065 7.092 -0.672679 3.88275 -0.627947 0.695782 2.04644 -0.232783 -0.703997 2.0337 0.561726 -0.29378 5.84486 1.23373 -0.0 0.0 0.0 -0.0 0.0 0.0 -1.63779e-14 -3.75726e-14 -1.99406e-15 44.5273 7.11249 3.18413 -7.21579 -3.18606 12.0308 -0.0767052 16.5571 2.32024 -1.31815e-10 -1.22123e-10 3.9238e-10 -2.19312e-10 -2.1533e-10 6.80479e-10 -1.3181e-10 -1.2212e-10 3.92382e-10 7.73091 5.47488 0.417314 -1.31815e-10 -1.22125e-10 3.92381e-10 2.90554 0.965183 0.102902 -1.31802e-10 -1.22125e-10 3.92377e-10 10.2786 0.731801 0.0259123 -1.31819e-10 -1.22124e-10 3.92379e-10 2.22167 -0.733487 -0.20892 -1.64413e-14 -3.75719e-14 -2.18974e-15 -42.6295 13.6468 -6.83235 5.05574 -1.91983 -8.53666 0.00272836 -3.16198 0.444336 3.7349e-10 -1.76273e-10 -4.29267e-10 6.46544e-10 -3.04733e-10 -7.40642e-10 3.73486e-10 -1.76268e-10 -4.29266e-10 -7.73091 5.47488 -0.417314 3.73493e-10 -1.76269e-10 -4.29274e-10 -2.90554 0.965183 -0.102902 3.73479e-10 -1.76269e-10 -4.2927e-10 -10.2786 0.731801 -0.0259123 3.73489e-10 -1.7627e-10 -4.29275e-10 -2.22167 -0.733487 0.20892 -2.03217e-16 0.0 -3.88251e-19 -1.65448 -14.2164 -2.10115 -0.0398569 14.2535 0.16579 -0.459946 -3.41699 0.0901641 2.03217e-16 0.0 3.88251e-19 1.05037 -15.8178 5.5602 0.00574737 17.5726 -0.252912 0.673713 -5.10758 1.24514
3.35436 82.6918 -78.9673 -1.305 -2.69 7.1023 -0.486854 5.66261 -0.910405 1.14165 2.98685 -0.319085 -1.0413 2.96898 0.819599 -0.51066 8.52209 1.80939 -0.0 0.0 0.0 -0.0 0.0 0.0 -2.37648e-14 -5.47917e-14 9.86154e-17 64.6597 10.3526 4.68856 -10.0826 -4.53158 17.579 -0.600481 24.1098 3.55184 -2.37494e-10 -1.63425e-10 5.77212e-10 -3.97797e-10 -2.89085e-10 1.00188e-09 -2.3749e-10 -1.63423e-10 5.77216e-10 7.73091 5.47488 0.417314 -2.37495e-10 -1.63428e-10 5.77212e-10 2.90554 0.965183 0.102902 -2.37484e-10 -1.63428e-10 5.77208e-10 10.2786 0.731801 0.0259123 -2.37498e-10 -1.63427e-10 5.77211e-10 2.22167 -0.733487 -0.20892 -2.38605e-14 -5.47902e-14 -9.6674e-17 -61.0247 19.7601 -10.296 7.18372 -2.76512 -12.4588 0.0203998 -4.60879 0.648783 5.03324e-10 -2.9946e-10 -6.49577e-10 8.71407e-10 -5.1776e-10 -1.12092e-09 5.03322e-10 -2.99452e-10 -6.49576e-10 -7.73091 5.47488 -0.417314 5.03329e-10 -2.99453e-10 -6.49584e-10 -2.90554 0.965183 -0.102902 5.03315e-10 -2.99453e-10 -6.49581e-10 -10.2786 0.731801 -0.0259123 5.03323e-10 -2.99454e-10 -6.49584e-10 -2.22167 -0.733487 0.20892 -2.03217e-16 0.0 -3.88251e-19 -2.60681 -19.8346 -3.15103 -0.103036 21.7351 0.290073 -0.447801 -6.81379 0.0644111 2.03217e-16 0.0 3.88251e-19 2.8117 -20.4695 8.26666 0.0469319 23.6364 -0.371763 0.85078 -7.96232 1.89095
3.29026 82.6914 -78.9707 -1.3962 -2.5764 7.1173 -0.301186 6.89794 -1.12664 1.44395 3.64387 -0.383392 -1.28611 3.63285 0.999103 -0.684046 10.3886 2.21594 -0.0 0.0 0.0 -0.0 0.0 0.0 -2.55812e-14 -6.67928e-14 1.28216e-14 78.5588 12.5928 5.77953 -11.9331 -5.40174 21.4804 -1.18385 29.3086 4.52509 -4.4713e-10 -1.38876e-10 7.26124e-10 -7.56297e-10 -2.49829e-10 1.26382e-09 -4.47125e-10 -1.38874e-10 7.2613e-10 7.73091 5.47488 0.417314 -4.47131e-10 -1.38879e-10 7.26124e-10 2.90554 0.965183 0.102902 -4.47122e-10 -1.38879e-10 7.2612e-10 10.2786 0.731801 0.0259123 -4.47134e-10 -1.38878e-10 7.26124e-10 2.22167 -0.733487 -0.20892 -2.5707e-14 -6.67909e-14 1.26228e-14 -73.3779 23.9781 -12.9495 8.60149 -3.3338 -15.2038 0.0387389 -5.6088 0.790818 4.7203e-10 -5.39476e-10 -8.86869e-10 8.17589e-10 -9.3299e-10 -1.53102e-09 4.72028e-10 -5.39469e-10 -8.86866e-10 -7.73091 5.47488 -0.417314 4.72034e-10 -5.3947e-10 -8.86875e-10 -2.90554 0.965183 -0.102902 4.72022e-10 -5.3947e-10 -8.86872e-10 -10.2786 0.731801 -0.0259123 4.72029e-10 -5.3947e-10 -8.86875e-10 -2.22167 -0.733487 0.20892 -2.03217e-16 0.0 -3.88251e-19 -3.37671 -23.7274 -3.94208 -0.168615 26.9359 0.387143 -0.445113 -9.17729 0.0311073 2.03217e-16 0.0 3.88251e-19 4.34 -23.6583 10.2444 0.0927366 27.8715 -0.464082 1.03676 -9.963 2.44844
